<svg xmlns="http://www.w3.org/2000/svg" width="48" height="48" viewBox="0 0 48 48" role="img" aria-label="GitHub">
  <circle cx="24" cy="24" r="19" fill="#24292f"/>
  <path fill="#fff" d="M17.4 39.2c.9.2 1.2-.4 1.2-.9v-3.1c-4.9 1.1-5.9-2.1-5.9-2.1-.8-2-2-2.5-2-2.5-1.6-1.1.1-1.1.1-1.1 1.8.1 2.8 1.9 2.8 1.9 1.6 2.7 4.2 1.9 5.2 1.5.2-1.2.6-1.9 1.1-2.4-3.9-.4-8-2-8-8.7 0-1.9.7-3.5 1.8-4.8-.2-.4-.8-2.2.2-4.7 0 0 1.5-.5 4.9 1.8 1.4-.4 3-.6 4.5-.6s3.1.2 4.5.6c3.4-2.3 4.9-1.8 4.9-1.8 1 2.5.4 4.3.2 4.7 1.1 1.3 1.8 2.8 1.8 4.8 0 6.8-4.1 8.3-8 8.7.6.5 1.2 1.6 1.2 3.3v4.9c0 .5.3 1 1.2.9A18.9 18.9 0 0 0 24 5a19 19 0 0 0-6.6 34.2z"/>
</svg>
